<svg id="SvgjsSvg1021" width="288" height="288" xmlns="http://www.w3.org/2000/svg" version="1.1" xmlns:xlink="http://www.w3.org/1999/xlink" xmlns:svgjs="http://svgjs.com/svgjs"><defs id="SvgjsDefs1022"></defs><g id="SvgjsG1023"><svg xmlns="http://www.w3.org/2000/svg" viewBox="0 0 32 32" width="288" height="288"><path d="M23 5H9C7.346 5 6 6.346 6 8v19a1 1 0 0 0 1.614.789L16 21.267l8.386 6.522a.996.996 0 0 0 1.053.109A1 1 0 0 0 26 27V8c0-1.654-1.346-3-3-3zm1 19.956-7.386-5.745a.999.999 0 0 0-1.228-.001L8 24.956V8c0-.551.449-1 1-1h14c.551 0 1 .449 1 1v16.956z" fill="#f7f7f7" class="color000 svgShape"></path></svg></g></svg>